<?xml version="1.0" encoding="UTF-8"?>
<svg version="1.1" xmlns="http://www.w3.org/2000/svg" width="124" height="115">
<path d="M0 0 C29.7 0 59.4 0 90 0 C90 27.72 90 55.44 90 84 C86.04 84.99 86.04 84.99 82 86 C84.64 86.33 87.28 86.66 90 87 C90 87.99 90 88.98 90 90 C95.50016964 91.30267176 100.47032059 90.71033431 106 90 C106.63661781 97.35520932 107.12515181 104.61604326 107 112 C105.68 112 104.36 112 103 112 C103.03255208 109.94921875 103.06510417 107.8984375 103.09765625 105.84765625 C103.20561184 103.98267859 103.20561184 103.98267859 102 103 C100.44055103 102.84141197 98.8769121 102.72321421 97.3125 102.625 C92.94706604 102.24294624 89.79816879 101.29889164 86 99 C86 99.66 86 100.32 86 101 C87.485 101.99 87.485 101.99 89 103 C88.67 103.33 88.34 103.66 88 104 C87.76924918 105.34747084 87.58846937 106.70377565 87.4375 108.0625 C87.293125 109.361875 87.14875 110.66125 87 112 C83.37 112 79.74 112 76 112 C75.505 107.545 75.505 107.545 75 103 C75.66 103 76.32 103 77 103 C77 102.01 77 101.02 77 100 C75.515 100.495 75.515 100.495 74 101 C73.34 100.67 72.68 100.34 72 100 C72.33 100.66 72.66 101.32 73 102 C73.35294118 108.47058824 73.35294118 108.47058824 71 112 C68.52620865 112.29283023 66.30629017 112.39632774 63.83203125 112.36328125 C63.11899338 112.36377975 62.40595551 112.36427826 61.67131042 112.36479187 C60.15901919 112.36244896 58.64672424 112.35270757 57.13452148 112.33618164 C54.83866723 112.31276687 52.54398876 112.3155964 50.24804688 112.32226562 C48.77603483 112.31668242 47.30402765 112.30956852 45.83203125 112.30078125 C45.15259964 112.30169266 44.47316803 112.30260406 43.77314758 112.30354309 C39.14374507 112.23603892 35.3583419 111.42049924 31 110 C31 109.34 31 108.68 31 108 C31.66 108 32.32 108 33 108 C32.505 103.545 32.505 103.545 32 99 C32 99.66 32 100.32 32 101 C31.68197057 102.66965451 31.35015049 104.33678518 31 106 C30.34 106 29.68 106 29 106 C29.495 109.465 29.495 109.465 30 113 C29.15695313 112.90460938 28.31390625 112.80921875 27.4453125 112.7109375 C26.34960938 112.60007812 25.25390625 112.48921875 24.125 112.375 C23.03445312 112.25898437 21.94390625 112.14296875 20.8203125 112.0234375 C19.88960937 112.01570313 18.95890625 112.00796875 18 112 C17.34 112.66 16.68 113.32 16 114 C16 110.04 16 106.08 16 102 C14.68 102 13.36 102 12 102 C11.34 101.34 10.68 100.68 10 100 C9.34 100 8.68 100 8 100 C8 101.98 8 103.96 8 106 C6.515 105.01 6.515 105.01 5 104 C3.515 104.495 3.515 104.495 2 105 C2 100.05 2 95.1 2 90 C1.855625 92.10375 1.71125 94.2075 1.5625 96.375 C1.125 102.75 1.125 102.75 0 105 C-0.61875 104.814375 -1.2375 104.62875 -1.875 104.4375 C-4.04160178 103.76313824 -4.04160178 103.76313824 -6 105 C-6.46751788 107.35599235 -6.46751788 107.35599235 -6.625 110.0625 C-6.74875 111.691875 -6.8725 113.32125 -7 115 C-10.3 115 -13.6 115 -17 115 C-17 110.38 -17 105.76 -17 101 C-16.01 101 -15.02 101 -14 101 C-13.505 100.505 -13.505 100.505 -13 100 C-14.32 99.67 -15.64 99.34 -17 99 C-17 96.36 -17 93.72 -17 91 C-13.50765756 90.90021879 -10.40562852 91.22157062 -7 92 C-7 90.68 -7 89.36 -7 88 C-6.01 88.33 -5.02 88.66 -4 89 C-4 89.99 -4 90.98 -4 92 C-3.01 92 -2.02 92 -1 92 C-0.67 61.64 -0.34 31.28 0 0 Z M30 88 C30.33 89.32 30.66 90.64 31 92 C31.66 90.68 32.32 89.36 33 88 C32.01 88 31.02 88 30 88 Z M34 88 C33.67 88.99 33.34 89.98 33 91 C33.66 91 34.32 91 35 91 C34.67 90.01 34.34 89.02 34 88 Z M41 88 C41 88.99 41 89.98 41 91 C41.66 91 42.32 91 43 91 C43 90.01 43 89.02 43 88 C42.34 88 41.68 88 41 88 Z M44 88 C44.33 88.66 44.66 89.32 45 90 C45.66 90 46.32 90 47 90 C47 89.34 47 88.68 47 88 C46.01 88 45.02 88 44 88 Z M73 88 C73 88.99 73 89.98 73 91 C73.66 90.67 74.32 90.34 75 90 C74.34 89.34 73.68 88.68 73 88 Z M76 88 C77 90 77 90 77 90 Z M82 88 C83 90 83 90 83 90 Z M4 89 C4 91.64 4 94.28 4 97 C4.33 97 4.66 97 5 97 C5 94.36 5 91.72 5 89 C4.67 89 4.34 89 4 89 Z M66 88 C65.34 88.66 64.68 89.32 64 90 C64.99 90 65.98 90 67 90 C66.67 89.34 66.34 88.68 66 88 Z M22 91 C23 94 23 94 23 94 Z M51 91 C51 91.66 51 92.32 51 93 C51.66 92.67 52.32 92.34 53 92 C52.34 91.67 51.68 91.34 51 91 Z M102 91 C103 93 103 93 103 93 Z M42 93 C41.67 94.65 41.34 96.3 41 98 C41.99 97.67 42.98 97.34 44 97 C43.34 95.68 42.68 94.36 42 93 Z M50 93 C50.33 93.99 50.66 94.98 51 96 C51 95.01 51 94.02 51 93 C50.67 93 50.34 93 50 93 Z M89 93 C88.67 93.66 88.34 94.32 88 95 C89.32 94.67 90.64 94.34 92 94 C91.01 93.67 90.02 93.34 89 93 Z M46 94 C46 96.64 46 99.28 46 102 C46.66 102 47.32 102 48 102 C47.67 99.36 47.34 96.72 47 94 C46.67 94 46.34 94 46 94 Z M78 95 C79 99 79 99 79 99 Z M-11 96 C-10 98 -10 98 -10 98 Z M27 96 C28 98 28 98 28 98 Z M50 96 C49.34 97.32 48.68 98.64 48 100 C49.32 99.34 50.64 98.68 52 98 C51.34 97.34 50.68 96.68 50 96 Z M64 96 C64.33 96.66 64.66 97.32 65 98 C65.33 97.34 65.66 96.68 66 96 C65.34 96 64.68 96 64 96 Z M14 97 C15 99 15 99 15 99 Z M-9 98 C-9.33 98.99 -9.66 99.98 -10 101 C-9.01 100.67 -8.02 100.34 -7 100 C-7.66 99.34 -8.32 98.68 -9 98 Z M41 99 C42 102 42 102 42 102 Z M24 100 C23.01 100.495 23.01 100.495 22 101 C22.75150023 104.27773504 22.75150023 104.27773504 26 106 C26.33 104.35 26.66 102.7 27 101 C26.01 100.67 25.02 100.34 24 100 Z M55 100 C55 101.32 55 102.64 55 104 C55.66 104 56.32 104 57 104 C57.33 102.68 57.66 101.36 58 100 C57.01 100 56.02 100 55 100 Z M62 101 C64.95664519 102.4783226 67.74229737 102.06032783 71 102 C70.67 101.34 70.34 100.68 70 100 C66.17612582 98.79246079 65.47451365 98.68365757 62 101 Z M17 101 C17.33 102.32 17.66 103.64 18 105 C18.33 104.34 18.66 103.68 19 103 C18.34 102.34 17.68 101.68 17 101 Z M42 102 C42.99 102.495 42.99 102.495 44 103 C44.33 103.66 44.66 104.32 45 105 C45 104.01 45 103.02 45 102 C44.01 102 43.02 102 42 102 Z M64 103 C64 103.66 64 104.32 64 105 C63.01 105.495 63.01 105.495 62 106 C63.32 106 64.64 106 66 106 C66 105.01 66 104.02 66 103 C65.34 103 64.68 103 64 103 Z M49 104 C50 106 50 106 50 106 Z M54 104 C55 106 55 106 55 106 Z M57 104 C58 106 58 106 58 106 Z M67 105 C68 108 68 108 68 108 Z M48 106 C49 109 49 109 49 109 Z " fill="#216E36" transform="translate(17,0)"/>
<path d="M0 0 C0.66 0.33 1.32 0.66 2 1 C1.67 2.32 1.34 3.64 1 5 C3.64 5 6.28 5 9 5 C8 8 8 8 6 9 C6 10.32 6 11.64 6 13 C6.70125 13.20753906 7.4025 13.41507813 8.125 13.62890625 C16.55025326 16.36482409 22.87074326 20.07018908 27.5 27.8125 C29 31 29 31 29 33 C31.64 33 34.28 33 37 33 C37 33.66 37 34.32 37 35 C38.98 35.495 38.98 35.495 41 36 C39.26151105 47.04855478 37.12014378 58.01969203 35 69 C34.15179688 68.9278125 33.30359375 68.855625 32.4296875 68.78125 C18.53543282 67.30574382 18.53543282 67.30574382 4.77685547 68.50219727 C1.31521582 69.12276024 -1.97133623 69.11166798 -5.48828125 69.09765625 C-6.19147995 69.0962413 -6.89467865 69.09482635 -7.6191864 69.09336853 C-9.85033544 69.08780109 -12.08138164 69.07525475 -14.3125 69.0625 C-15.83137875 69.05748079 -17.35025909 69.05291862 -18.86914062 69.04882812 C-22.57946012 69.03784236 -26.28972001 69.02060034 -30 69 C-30.08040527 68.42668945 -30.16081055 67.85337891 -30.24365234 67.26269531 C-32.44196436 51.60350359 -32.44196436 51.60350359 -35 36 C-33.02 35.505 -33.02 35.505 -31 35 C-31 34.34 -31 33.68 -31 33 C-28.36 33 -25.72 33 -23 33 C-22.814375 32.175 -22.62875 31.35 -22.4375 30.5 C-19.22604743 22.68081114 -13.82171082 18.39811038 -6.33203125 14.8125 C-4 14 -4 14 0 14 C0.16681109 11.08347826 0.16681109 11.08347826 0 8 C-0.66 7.34 -1.32 6.68 -2 6 C-1.44444444 1.44444444 -1.44444444 1.44444444 0 0 Z " fill="#F0F1F2" transform="translate(59,9)"/>
<path d="M0 0 C16.83 0 33.66 0 51 0 C51 0.99 51 1.98 51 3 C56.50016964 4.30267176 61.47032059 3.71033431 67 3 C67.63661781 10.35520932 68.12515181 17.61604326 68 25 C66.68 25 65.36 25 64 25 C64.03255208 22.94921875 64.06510417 20.8984375 64.09765625 18.84765625 C64.20561184 16.98267859 64.20561184 16.98267859 63 16 C61.44055103 15.84141197 59.8769121 15.72321421 58.3125 15.625 C53.94706604 15.24294624 50.79816879 14.29889164 47 12 C47 12.66 47 13.32 47 14 C47.99 14.66 48.98 15.32 50 16 C49.505 16.495 49.505 16.495 49 17 C48.76924918 18.34747084 48.58846937 19.70377565 48.4375 21.0625 C48.293125 22.361875 48.14875 23.66125 48 25 C44.37 25 40.74 25 37 25 C36.505 20.545 36.505 20.545 36 16 C36.66 16 37.32 16 38 16 C38 15.01 38 14.02 38 13 C37.01 13.33 36.02 13.66 35 14 C34.01 13.505 34.01 13.505 33 13 C33.495 13.99 33.495 13.99 34 15 C34.35294118 21.47058824 34.35294118 21.47058824 32 25 C29.52620865 25.29283023 27.30629017 25.39632774 24.83203125 25.36328125 C24.11899338 25.36377975 23.40595551 25.36427826 22.67131042 25.36479187 C21.15901919 25.36244896 19.64672424 25.35270757 18.13452148 25.33618164 C15.83866723 25.31276687 13.54398876 25.3155964 11.24804688 25.32226562 C9.77603483 25.31668242 8.30402765 25.30956852 6.83203125 25.30078125 C6.15259964 25.30169266 5.47316803 25.30260406 4.77314758 25.30354309 C0.14374507 25.23603892 -3.6416581 24.42049924 -8 23 C-8 22.34 -8 21.68 -8 21 C-7.34 21 -6.68 21 -6 21 C-6.33 18.03 -6.66 15.06 -7 12 C-7 12.66 -7 13.32 -7 14 C-7.31802943 15.66965451 -7.64984951 17.33678518 -8 19 C-8.66 19 -9.32 19 -10 19 C-9.67 21.31 -9.34 23.62 -9 26 C-10.26457031 25.85691406 -10.26457031 25.85691406 -11.5546875 25.7109375 C-12.65039062 25.60007812 -13.74609375 25.48921875 -14.875 25.375 C-15.96554688 25.25898437 -17.05609375 25.14296875 -18.1796875 25.0234375 C-19.11039063 25.01570313 -20.04109375 25.00796875 -21 25 C-21.66 25.66 -22.32 26.32 -23 27 C-23 23.04 -23 19.08 -23 15 C-24.32 15 -25.64 15 -27 15 C-27.66 14.34 -28.32 13.68 -29 13 C-29.66 13 -30.32 13 -31 13 C-31 14.98 -31 16.96 -31 19 C-31.99 18.34 -32.98 17.68 -34 17 C-34.99 17.33 -35.98 17.66 -37 18 C-37.05402274 15.89611431 -37.09280256 13.79183286 -37.125 11.6875 C-37.14820312 10.51574219 -37.17140625 9.34398438 -37.1953125 8.13671875 C-37 5 -37 5 -35 2 C-32.50390625 1.6015625 -32.50390625 1.6015625 -29.5625 1.625 C-28.59441406 1.61726563 -27.62632813 1.60953125 -26.62890625 1.6015625 C-23.67939244 2.04859134 -22.8030631 2.6896344 -21 5 C-21 4.01 -21 3.02 -21 2 C-17.04 2 -13.08 2 -9 2 C-8.67 2.66 -8.34 3.32 -8 4 C-7.34 3.67 -6.68 3.34 -6 3 C-5.34 3.33 -4.68 3.66 -4 4 C-4 3.34 -4 2.68 -4 2 C-2.02 2 -0.04 2 2 2 C2 2.66 2 3.32 2 4 C2.66 4 3.32 4 4 4 C4 3.01 4 2.02 4 1 C2.68 0.67 1.36 0.34 0 0 Z M5 1 C5.33 1.66 5.66 2.32 6 3 C6.66 3 7.32 3 8 3 C8 2.34 8 1.68 8 1 C7.01 1 6.02 1 5 1 Z M34 1 C34 1.99 34 2.98 34 4 C34.66 3.67 35.32 3.34 36 3 C35.34 2.34 34.68 1.68 34 1 Z M37 1 C38 3 38 3 38 3 Z M43 1 C44 3 44 3 44 3 Z M27 1 C26.34 1.66 25.68 2.32 25 3 C25.99 3 26.98 3 28 3 C27.67 2.34 27.34 1.68 27 1 Z M-17 4 C-16 7 -16 7 -16 7 Z M12 4 C12 4.66 12 5.32 12 6 C12.66 5.67 13.32 5.34 14 5 C13.34 4.67 12.68 4.34 12 4 Z M63 4 C64 6 64 6 64 6 Z M3 6 C2.67 7.65 2.34 9.3 2 11 C2.99 10.67 3.98 10.34 5 10 C4.34 8.68 3.68 7.36 3 6 Z M11 6 C11.33 6.99 11.66 7.98 12 9 C12 8.01 12 7.02 12 6 C11.67 6 11.34 6 11 6 Z M50 6 C49.67 6.66 49.34 7.32 49 8 C50.32 7.67 51.64 7.34 53 7 C52.01 6.67 51.02 6.34 50 6 Z M7 7 C7 9.64 7 12.28 7 15 C7.66 15 8.32 15 9 15 C8.67 12.36 8.34 9.72 8 7 C7.67 7 7.34 7 7 7 Z M39 8 C40 12 40 12 40 12 Z M-12 9 C-11 11 -11 11 -11 11 Z M11 9 C10.34 10.32 9.68 11.64 9 13 C10.32 12.34 11.64 11.68 13 11 C12.34 10.34 11.68 9.68 11 9 Z M25 9 C25.33 9.66 25.66 10.32 26 11 C26.33 10.34 26.66 9.68 27 9 C26.34 9 25.68 9 25 9 Z M-25 10 C-24 12 -24 12 -24 12 Z M2 12 C3 15 3 15 3 15 Z M-15 13 C-15.99 13.495 -15.99 13.495 -17 14 C-16.24849977 17.27773504 -16.24849977 17.27773504 -13 19 C-12.67 17.35 -12.34 15.7 -12 14 C-12.99 13.67 -13.98 13.34 -15 13 Z M16 13 C16 14.32 16 15.64 16 17 C16.66 17 17.32 17 18 17 C18.33 15.68 18.66 14.36 19 13 C18.01 13 17.02 13 16 13 Z M23 14 C25.95664519 15.4783226 28.74229737 15.06032783 32 15 C31.67 14.34 31.34 13.68 31 13 C27.17612582 11.79246079 26.47451365 11.68365757 23 14 Z M-22 14 C-21.67 15.32 -21.34 16.64 -21 18 C-20.67 17.34 -20.34 16.68 -20 16 C-20.66 15.34 -21.32 14.68 -22 14 Z M3 15 C3.99 15.495 3.99 15.495 5 16 C5.33 16.66 5.66 17.32 6 18 C6 17.01 6 16.02 6 15 C5.01 15 4.02 15 3 15 Z M25 16 C25 16.66 25 17.32 25 18 C24.01 18.495 24.01 18.495 23 19 C24.32 19 25.64 19 27 19 C27 18.01 27 17.02 27 16 C26.34 16 25.68 16 25 16 Z M10 17 C11 19 11 19 11 19 Z M15 17 C16 19 16 19 16 19 Z M18 17 C19 19 19 19 19 19 Z M28 18 C29 21 29 21 29 21 Z M9 19 C10 22 10 22 10 22 Z " fill="#515353" transform="translate(56,87)"/>
<path d="M0 0 C0 0.66 0 1.32 0 2 C0.66 2 1.32 2 2 2 C2 10.91 2 19.82 2 29 C-13.84 29.495 -13.84 29.495 -30 30 C-30.45375 26.7825 -30.9075 23.565 -31.375 20.25 C-32.47794523 12.48009646 -33.63972089 4.729586 -35 -3 C-25.23922822 -7.88038589 -9.83806369 -2.72738399 0 0 Z " fill="#F8FAF9" transform="translate(59,48)"/>
<path d="M0 0 C1.30582031 -0.00257812 2.61164063 -0.00515625 3.95703125 -0.0078125 C7.1875 0.125 7.1875 0.125 9.1875 1.125 C7.44901105 12.17355478 5.30764378 23.14469203 3.1875 34.125 C2.37410156 34.0528125 1.56070313 33.980625 0.72265625 33.90625 C-8.83033413 33.13255449 -18.22909888 33.04644753 -27.8125 33.125 C-27.8125 23.885 -27.8125 14.645 -27.8125 5.125 C-17.40598037 1.92299396 -10.45512016 -0.0208477 0 0 Z " fill="#FBFCFB" transform="translate(90.8125,43.875)"/>
<path d="M0 0 C0.99 0.33 1.98 0.66 3 1 C3 1.99 3 2.98 3 4 C3.99 4 4.98 4 6 4 C6 3.01 6 2.02 6 1 C6.99 1.33 7.98 1.66 9 2 C8.85930804 4.12534659 8.71229079 6.25027529 8.5625 8.375 C8.48128906 9.55835937 8.40007813 10.74171875 8.31640625 11.9609375 C8 15 8 15 7 17 C6.38125 16.814375 5.7625 16.62875 5.125 16.4375 C2.95839822 15.76313824 2.95839822 15.76313824 1 17 C0.53248212 19.35599235 0.53248212 19.35599235 0.375 22.0625 C0.25125 23.691875 0.1275 25.32125 0 27 C-3.3 27 -6.6 27 -10 27 C-10 22.38 -10 17.76 -10 13 C-9.01 13 -8.02 13 -7 13 C-6.67 12.67 -6.34 12.34 -6 12 C-7.32 11.67 -8.64 11.34 -10 11 C-10 8.36 -10 5.72 -10 3 C-6.50765756 2.90021879 -3.40562852 3.22157062 0 4 C0 2.68 0 1.36 0 0 Z M-4 8 C-3 10 -3 10 -3 10 Z M-2 10 C-2.33 10.99 -2.66 11.98 -3 13 C-2.01 12.67 -1.02 12.34 0 12 C-0.66 11.34 -1.32 10.68 -2 10 Z " fill="#585858" transform="translate(10,88)"/>
<path d="M0 0 C0.99 0 1.98 0 3 0 C3 0.66 3 1.32 3 2 C3.66 1.67 4.32 1.34 5 1 C7.2072923 0.92907158 9.41667452 0.91584975 11.625 0.9375 C12.81351563 0.94652344 14.00203125 0.95554687 15.2265625 0.96484375 C16.14179688 0.97644531 17.05703125 0.98804687 18 1 C17.67 1.99 17.34 2.98 17 4 C16.38125 3.814375 15.7625 3.62875 15.125 3.4375 C12.95839822 2.76313824 12.95839822 2.76313824 11 4 C10.53248212 6.35599235 10.53248212 6.35599235 10.375 9.0625 C10.25125 10.691875 10.1275 12.32125 10 14 C6.7 14 3.4 14 0 14 C0 9.38 0 4.76 0 0 Z " fill="#020202" transform="translate(0,101)"/>
<path d="M0 0 C1.09570312 0.00902344 2.19140625 0.01804687 3.3203125 0.02734375 C4.16335937 0.03894531 5.00640625 0.05054687 5.875 0.0625 C5.215 3.3625 4.555 6.6625 3.875 10.0625 C0.245 10.0625 -3.385 10.0625 -7.125 10.0625 C-7.455 7.0925 -7.785 4.1225 -8.125 1.0625 C-5.36047967 -0.31976016 -3.0788637 -0.03275387 0 0 Z " fill="#000002" transform="translate(100.125,101.9375)"/>
<path d="M0 0 C5.37514905 -0.04935509 10.75016685 -0.08569802 16.12548828 -0.10986328 C17.95493873 -0.11993484 19.78437303 -0.13359276 21.61376953 -0.15087891 C24.23994934 -0.17507677 26.86591675 -0.18647132 29.4921875 -0.1953125 C30.72350906 -0.21079636 30.72350906 -0.21079636 31.97970581 -0.22659302 C33.98789142 -0.22699184 35.99555382 -0.1224954 38 0 C38.66 0.66 39.32 1.32 40 2 C39.34 2 38.68 2 38 2 C37.67 2.66 37.34 3.32 37 4 C37 3.34 37 2.68 37 2 C36.236875 2.185625 35.47375 2.37125 34.6875 2.5625 C32 3 32 3 29 2 C27.33378384 1.96125079 25.66605828 1.9549714 24 2 C23.67 2.66 23.34 3.32 23 4 C23 3.34 23 2.68 23 2 C21.02 2 19.04 2 17 2 C16.67 2.99 16.34 3.98 16 5 C16 4.34 16 3.68 16 3 C14.51886719 2.92652344 14.51886719 2.92652344 13.0078125 2.8515625 C11.08582031 2.73941406 11.08582031 2.73941406 9.125 2.625 C7.84882813 2.55539063 6.57265625 2.48578125 5.2578125 2.4140625 C2 2 2 2 0 0 Z " fill="#193E24" transform="translate(18,87)"/>
<path d="M0 0 C0.33 0.66 0.66 1.32 1 2 C3.64 2 6.28 2 9 2 C9 2.66 9 3.32 9 4 C8.17761841 4.07516846 8.17761841 4.07516846 7.33862305 4.15185547 C-7.41257885 5.48757241 -7.41257885 5.48757241 -22 8 C-15.39057118 2.77526793 -8.15962886 2.56069782 0 2 C0 1.34 0 0.68 0 0 Z " fill="#ACAEAE" transform="translate(87,40)"/>
<path d="M0 0 C0.33 0.66 0.66 1.32 1 2 C3.21779157 2.31925687 3.21779157 2.31925687 5.875 2.375 C12.07011546 2.80532912 17.29900162 4.62917862 23 7 C19.25648217 8.24783928 17.49814533 7.56579352 13.6875 6.625 C6.43838985 4.96957234 -0.56007335 4.3278995 -8 4 C-8 3.34 -8 2.68 -8 2 C-5.36 2 -2.72 2 0 2 C0 1.34 0 0.68 0 0 Z " fill="#A9AEAC" transform="translate(36,40)"/>
<path d="M0 0 C0.66 0.33 1.32 0.66 2 1 C1.67 2.32 1.34 3.64 1 5 C3.64 5 6.28 5 9 5 C7.86695008 8.39914975 6.87481525 9.05254451 4 11 C3.67 10.34 3.34 9.68 3 9 C2.01 9.495 2.01 9.495 1 10 C-0.5625 8.3125 -0.5625 8.3125 -2 6 C-1.58974359 1.58974359 -1.58974359 1.58974359 0 0 Z " fill="#D5E5DC" transform="translate(59,9)"/>
<path d="M0 0 C0.66 0.33 1.32 0.66 2 1 C2 3.97 2 6.94 2 10 C0.68 10 -0.64 10 -2 10 C-2.1953125 3.9453125 -2.1953125 3.9453125 -2 2 C-1.34 1.34 -0.68 0.68 0 0 Z " fill="#000002" transform="translate(122,102)"/>
<path d="M0 0 C1.65 0 3.3 0 5 0 C5 1.65 5 3.3 5 5 C3.35 5 1.7 5 0 5 C0 3.35 0 1.7 0 0 Z " fill="#659373" transform="translate(62,10)"/>
<path d="M0 0 C6.0546875 -0.1953125 6.0546875 -0.1953125 8 0 C8.66 0.66 9.32 1.32 10 2 C9.34 2 8.68 2 8 2 C7.67 2.66 7.34 3.32 7 4 C7 3.34 7 2.68 7 2 C6.21625 2.185625 5.4325 2.37125 4.625 2.5625 C2 3 2 3 0 2 C0 1.34 0 0.68 0 0 Z " fill="#1A3B24" transform="translate(48,87)"/>
<path d="M0 0 C0.99 0.33 1.98 0.66 3 1 C2.01 1 1.02 1 0 1 C0 0.67 0 0.34 0 0 Z " fill="#191919" transform="translate(120,88)"/>
<path d="M0 0 C3 1 3 1 3 1 Z " fill="#68686A" transform="translate(48,111)"/>
<path d="" fill="#58585A" transform="translate(0,0)"/>
<path d="" fill="#000002" transform="translate(0,0)"/>
<path d="" fill="#595959" transform="translate(0,0)"/>
</svg>
